<?xml version="1.0" encoding="iso-8859-1"?>
<!-- Generator: Adobe Illustrator 19.0.0, SVG Export Plug-In . SVG Version: 6.00 Build 0)  -->
<svg version="1.1" id="Layer_1" xmlns="http://www.w3.org/2000/svg" xmlns:xlink="http://www.w3.org/1999/xlink" x="0px" y="0px"
	 viewBox="0 0 512 512" style="enable-background:new 0 0 512 512;" xml:space="preserve">
<circle style="fill:#FFEC97;" cx="255.996" cy="255.996" r="255.996"/>
<path style="fill:#FFDB2D;" d="M512,255.999c0-3.311-0.084-6.602-0.208-9.882L374.62,108.944
	C344.817,77.563,302.695,57.994,256,57.994c-90.335,0-163.566,73.231-163.566,163.566c0,0,89.994,89.133,152.184,151.292H103.746
	v40.402l91.464,91.464c19.487,4.747,39.841,7.282,60.789,7.282C397.385,512,512,397.385,512,255.999z"/>
<rect x="245.13" y="201.934" style="fill:#C06100;" width="21.747" height="177.097"/>
<rect x="255.996" y="201.934" style="fill:#994B00;" width="10.877" height="177.097"/>
<path style="fill:#FF3C62;" d="M255.999,57.994c-90.335,0-163.566,73.231-163.566,163.566h327.132
	C419.565,131.226,346.335,57.994,255.999,57.994z"/>
<path style="fill:#FF0335;" d="M419.565,221.56c0-90.335-73.231-163.566-163.566-163.566c-0.001,0-0.002,0-0.003,0V221.56H419.565z"
	/>
<path style="fill:#FFFFFF;" d="M255.999,57.994c-47.121,0-85.32,73.231-85.32,163.566h170.639
	C341.319,131.226,303.121,57.994,255.999,57.994z"/>
<path style="fill:#D8D8DA;" d="M341.319,221.56c0-90.335-38.199-163.566-85.319-163.566c-0.001,0-0.002,0-0.003,0V221.56H341.319z"
	/>
<rect x="103.746" y="372.856" style="fill:#FFA91F;" width="304.51" height="40.402"/>
<rect x="255.996" y="372.856" style="fill:#FF8800;" width="152.26" height="40.402"/>
<g>
</g>
<g>
</g>
<g>
</g>
<g>
</g>
<g>
</g>
<g>
</g>
<g>
</g>
<g>
</g>
<g>
</g>
<g>
</g>
<g>
</g>
<g>
</g>
<g>
</g>
<g>
</g>
<g>
</g>
</svg>
